<svg xmlns="http://www.w3.org/2000/svg" viewBox="0 0 100 125" x="0px" y="0px"><path d="M86.67,50c0,.25-.18,.46-.43,.49-28.21,4.19-31.55,7.54-35.74,35.74-.04,.24-.25,.43-.49,.43s-.46-.18-.49-.43c-4.19-28.21-7.54-31.55-35.74-35.74-.24-.04-.43-.25-.43-.49s.18-.46,.43-.49c28.21-4.19,31.55-7.54,35.74-35.74,.04-.24,.25-.43,.49-.43s.46,.18,.49,.43c4.19,28.21,7.54,31.55,35.74,35.74,.24,.04,.43,.25,.43,.49Z"/><text x="0" y="115" fill="#000000" font-size="5px" font-weight="bold" font-family="'Helvetica Neue', Helvetica, Arial-Unicode, Arial, Sans-serif">Created by Daisy</text><text x="0" y="120" fill="#000000" font-size="5px" font-weight="bold" font-family="'Helvetica Neue', Helvetica, Arial-Unicode, Arial, Sans-serif">from the Noun Project</text></svg>